# xmcd
#
# Track frame offsets:
#	225
#	9147
#	18066
#	28039
#	40149
#	49319
#	62015
#	74973
#	85077
#	95841
#	107498
#	116425
#	127075
#	139577
#	152051
#	164429
#	177140
#	186592
#	199843
#	209575
#	221203
#	235117
#	245791
#	257874
#
# Disc length: 3568 seconds
#
# Revision: 1
# Processed by: cddbd v1.5.2PL0 Copyright (c) Steve Scherf et al.
# Submitted via: audiograbber 1.83.01
#
DISCID=650ded18
DTITLE=Gisele MacKenzie and Helen O'Connell - Gisele and Helen
DYEAR=1900
DGENRE=
TTITLE0=Water Can't Quench The Fire Of Love
TTITLE1=A Crazy Waltz
TTITLE2=Le Fiacre
TTITLE3=Would I Love You?
TTITLE4=Johnny
TTITLE5=Green Eyes
TTITLE6=Adios
TTITLE7=Anytime
TTITLE8=Don't Let The Stars Get In Your Eyes
TTITLE9=Slowpoke
TTITLE10=Lipstick, Powder 'n' Paint
TTITLE11=Get It While You're Young
TTITLE12=My Favorite Song
TTITLE13=Come What May
TTITLE14=I'd Rather Die Young
TTITLE15=Be Anything
TTITLE16=Till They've All Gone Home
TTITLE17=No Other Love
TTITLE18=Seven Lonely Days
TTITLE19=Night For Love
TTITLE20=Till I Waltz Again With You
TTITLE21=Rub-A-Dub Dub
TTITLE22=Give Me The Name, Age, Height And Size
TTITLE23=When The Hands Of The Clock Pray At Midnight
EXTD=
EXTT0=
EXTT1=
EXTT2=
EXTT3=
EXTT4=
EXTT5=
EXTT6=
EXTT7=
EXTT8=
EXTT9=
EXTT10=
EXTT11=
EXTT12=
EXTT13=
EXTT14=
EXTT15=
EXTT16=
EXTT17=
EXTT18=
EXTT19=
EXTT20=
EXTT21=
EXTT22=
EXTT23=
PLAYORDER=
